<svg width="36" height="36" viewBox="0 0 36 36" fill="none" xmlns="http://www.w3.org/2000/svg">
<rect x="0.5" y="0.5" width="35" height="35" rx="17.5" fill="white"/>
<rect x="0.5" y="0.5" width="35" height="35" rx="17.5" stroke="#EFF0F2"/>
<path d="M23.0002 12H13.0002C11.6702 12 10.5602 12.87 10.1602 14.06L17.2902 16.73C17.7402 16.9 18.2402 16.9 18.6902 16.73L25.8202 14.06C25.4202 12.87 24.3102 12 22.9802 12H23.0002Z" stroke="#515167" stroke-width="1.5" stroke-linecap="round" stroke-linejoin="round"/>
<path d="M23 12H13C11.3431 12 10 13.3431 10 15V21C10 22.6569 11.3431 24 13 24H23C24.6569 24 26 22.6569 26 21V15C26 13.3431 24.6569 12 23 12Z" stroke="#515167" stroke-width="1.5" stroke-linecap="round" stroke-linejoin="round"/>
</svg>
