<svg width="36" height="36" viewBox="0 0 36 36" fill="none" xmlns="http://www.w3.org/2000/svg">
<rect x="0.5" y="0.5" width="35" height="35" rx="17.5" fill="white"/>
<rect x="0.5" y="0.5" width="35" height="35" rx="17.5" stroke="#EFF0F2"/>
<path d="M16 24.5V19H14.5C14.22 19 14 18.78 14 18.5V16.5C14 16.22 14.22 16 14.5 16H16V13.5C16 11.57 17.57 10 19.5 10H21.5C21.78 10 22 10.22 22 10.5V12.5C22 12.78 21.78 13 21.5 13H19.5C19.23 13 19 13.23 19 13.5V16H21.41C21.72 16 21.95 16.28 21.9 16.58L21.57 18.58C21.53 18.82 21.32 19 21.08 19H19V24.5C19 24.78 18.78 25 18.5 25H16.5C16.22 25 16 24.78 16 24.5Z" fill="#515167"/>
</svg>
