<svg width="36" height="36" viewBox="0 0 36 36" fill="none" xmlns="http://www.w3.org/2000/svg">
<rect x="0.5" y="0.5" width="35" height="35" rx="17.5" fill="white"/>
<rect x="0.5" y="0.5" width="35" height="35" rx="17.5" stroke="#EFF0F2"/>
<path d="M14.35 25H12.44C12.2 25 12 24.8 12 24.56V15.64C12 15.4 12.2 15.2 12.44 15.2H14.35C14.59 15.2 14.79 15.4 14.79 15.64V24.57C14.79 24.81 14.59 25.01 14.35 25.01V25ZM14.35 13.8H12.44C12.2 13.8 12 13.6 12 13.36V11.44C12 11.2 12.2 11 12.44 11H14.35C14.59 11 14.79 11.2 14.79 11.44V13.36C14.79 13.6 14.59 13.8 14.35 13.8ZM24.11 25H22.2C21.96 25 21.76 24.8 21.76 24.56V19.47C21.76 18.77 21.29 18.12 20.6 18.01C19.73 17.87 18.97 18.54 18.97 19.39V24.55C18.97 24.79 18.77 24.99 18.53 24.99H16.62C16.38 24.99 16.18 24.79 16.18 24.55V15.64C16.18 15.4 16.38 15.2 16.62 15.2H18.97V15.73C19.7 15.5 20.18 15.2 21.06 15.2C22.95 15.2 24.55 16.91 24.55 18.92V24.56C24.55 24.8 24.35 25 24.11 25Z" fill="#1F1F27"/>
</svg>
